<svg xmlns="http://www.w3.org/2000/svg" viewBox="0 0 800 600" width="800" height="600">
  <defs>
    <radialGradient id="bg" cx="50%" cy="45%" r="75%"><stop offset="0%" stop-color="#1c1814"/><stop offset="60%" stop-color="#0f0c09"/><stop offset="100%" stop-color="#050403"/></radialGradient>
    <linearGradient id="gold" x1="0" y1="0" x2="1" y2="1"><stop offset="0%" stop-color="#e3c88a"/><stop offset="100%" stop-color="#8a6f33"/></linearGradient>
  </defs>
  <rect width="800" height="600" fill="url(#bg)"/>
  <!-- masthead style newspaper -->
  <rect x="200" y="150" width="400" height="300" rx="6" fill="#1a1612" stroke="#3a332a" stroke-width="2"/>
  <!-- double header line -->
  <line x1="220" y1="200" x2="580" y2="200" stroke="#c9a961" stroke-width="1"/>
  <line x1="220" y1="206" x2="580" y2="206" stroke="#c9a961" stroke-width="0.5"/>
  <text x="400" y="185" text-anchor="middle" font-family="Georgia, serif" font-size="26" fill="#c9a961" letter-spacing="8">SPADE · NEWS</text>
  <!-- body text lines -->
  <g stroke="#3a332a" stroke-width="2" stroke-linecap="round">
    <line x1="230" y1="230" x2="570" y2="230"/>
    <line x1="230" y1="250" x2="530" y2="250"/>
    <line x1="230" y1="270" x2="560" y2="270"/>
    <line x1="230" y1="290" x2="500" y2="290"/>
    <line x1="230" y1="330" x2="570" y2="330"/>
    <line x1="230" y1="350" x2="520" y2="350"/>
    <line x1="230" y1="370" x2="550" y2="370"/>
    <line x1="230" y1="390" x2="480" y2="390"/>
    <line x1="230" y1="420" x2="560" y2="420"/>
  </g>
  <!-- small inset photo -->
  <rect x="450" y="320" width="120" height="80" fill="url(#gold)" opacity="0.25"/>
  <text x="400" y="510" text-anchor="middle" font-family="Georgia, serif" font-size="14" fill="#c9a961" letter-spacing="8">NEWS &amp; UPDATES</text>
</svg>
