<svg xmlns="http://www.w3.org/2000/svg" viewBox="0 0 800 500" width="800" height="500">
  <defs>
    <radialGradient id="bg" cx="50%" cy="40%" r="80%">
      <stop offset="0%" stop-color="#1c1814"/>
      <stop offset="60%" stop-color="#0f0c09"/>
      <stop offset="100%" stop-color="#050403"/>
    </radialGradient>
    <linearGradient id="gold" x1="0" y1="0" x2="1" y2="1">
      <stop offset="0%" stop-color="#e3c88a"/>
      <stop offset="50%" stop-color="#c9a961"/>
      <stop offset="100%" stop-color="#8a6f33"/>
    </linearGradient>
  </defs>
  <rect width="800" height="500" fill="url(#bg)"/>
  <!-- subtle diagonal light -->
  <polygon points="0,0 400,0 200,500 0,500" fill="#fff" opacity="0.02"/>
  <!-- Decorative spade frame -->
  <g transform="translate(400 220)">
    <circle r="70" fill="none" stroke="url(#gold)" stroke-width="1.2"/>
    <circle r="86" fill="none" stroke="url(#gold)" stroke-width="0.5" opacity="0.6"/>
    <path d="M0 -38 Q-40 -4 -30 18 Q-24 32 0 26 Q24 32 30 18 Q40 -4 0 -38 Z M-6 26 L-10 42 L10 42 L6 26 Z" fill="url(#gold)"/>
  </g>
  <text x="400" y="340" text-anchor="middle" font-family="Georgia, serif" font-size="48" fill="#f5efe6" letter-spacing="18">SPADE</text>
  <text x="400" y="370" text-anchor="middle" font-family="Georgia, serif" font-size="14" fill="#c9a961" letter-spacing="8">BARBER · LOUTRAKI</text>
  <line x1="350" y1="395" x2="450" y2="395" stroke="#c9a961" stroke-width="0.5"/>
  <text x="400" y="420" text-anchor="middle" font-family="Georgia, serif" font-size="11" fill="#8a7d63" letter-spacing="4">CLASSIC GROOMING · MODERN RHYTHM</text>
  <!-- corner tags -->
  <g font-family="Georgia, serif" font-size="9" fill="#8a7d63" letter-spacing="3">
    <text x="40" y="40">· TEMPLATE</text>
    <text x="760" y="40" text-anchor="end">BARBER ·</text>
    <text x="40" y="470">· 8 SERVICES</text>
    <text x="760" y="470" text-anchor="end">15 PRODUCTS ·</text>
  </g>
</svg>
