<svg xmlns="http://www.w3.org/2000/svg" viewBox="0 0 800 600" width="800" height="600">
  <defs>
    <radialGradient id="bg" cx="50%" cy="45%" r="70%"><stop offset="0%" stop-color="#1c1814"/><stop offset="60%" stop-color="#0f0c09"/><stop offset="100%" stop-color="#050403"/></radialGradient>
    <linearGradient id="pearwood" x1="0" y1="0" x2="0" y2="1"><stop offset="0%" stop-color="#9a6838"/><stop offset="50%" stop-color="#6a4420"/><stop offset="100%" stop-color="#3a2610"/></linearGradient>
  </defs>
  <rect width="800" height="600" fill="url(#bg)"/>
  <ellipse cx="400" cy="400" rx="280" ry="12" fill="#000" opacity="0.55"/>
  <!-- wooden comb -->
  <g transform="translate(400 300) rotate(-8)">
    <!-- spine -->
    <rect x="-260" y="-30" width="520" height="50" rx="8" fill="url(#pearwood)" stroke="#20140a" stroke-width="1.5"/>
    <!-- grain highlights -->
    <path d="M-250 -20 L250 -20" stroke="#4a2f18" stroke-width="1" opacity="0.6"/>
    <path d="M-250 -10 L250 -10" stroke="#8a5828" stroke-width="0.5" opacity="0.4"/>
    <!-- teeth: fine side (left, thinner/denser) and coarse side (right, wider) -->
    <g fill="url(#pearwood)" stroke="#20140a" stroke-width="0.8">
      <!-- coarse teeth -->
      <rect x="-258" y="20" width="6" height="70" rx="2"/>
      <rect x="-242" y="20" width="6" height="70" rx="2"/>
      <rect x="-226" y="20" width="6" height="70" rx="2"/>
      <rect x="-210" y="20" width="6" height="70" rx="2"/>
      <rect x="-194" y="20" width="6" height="70" rx="2"/>
      <rect x="-178" y="20" width="6" height="70" rx="2"/>
      <rect x="-162" y="20" width="6" height="70" rx="2"/>
      <rect x="-146" y="20" width="6" height="70" rx="2"/>
      <rect x="-130" y="20" width="6" height="70" rx="2"/>
      <rect x="-114" y="20" width="6" height="70" rx="2"/>
      <!-- fine teeth -->
      <g>
        <rect x="10" y="20" width="3" height="55" rx="1"/>
        <rect x="19" y="20" width="3" height="55" rx="1"/>
        <rect x="28" y="20" width="3" height="55" rx="1"/>
        <rect x="37" y="20" width="3" height="55" rx="1"/>
        <rect x="46" y="20" width="3" height="55" rx="1"/>
        <rect x="55" y="20" width="3" height="55" rx="1"/>
        <rect x="64" y="20" width="3" height="55" rx="1"/>
        <rect x="73" y="20" width="3" height="55" rx="1"/>
        <rect x="82" y="20" width="3" height="55" rx="1"/>
        <rect x="91" y="20" width="3" height="55" rx="1"/>
        <rect x="100" y="20" width="3" height="55" rx="1"/>
        <rect x="109" y="20" width="3" height="55" rx="1"/>
        <rect x="118" y="20" width="3" height="55" rx="1"/>
        <rect x="127" y="20" width="3" height="55" rx="1"/>
        <rect x="136" y="20" width="3" height="55" rx="1"/>
        <rect x="145" y="20" width="3" height="55" rx="1"/>
        <rect x="154" y="20" width="3" height="55" rx="1"/>
        <rect x="163" y="20" width="3" height="55" rx="1"/>
        <rect x="172" y="20" width="3" height="55" rx="1"/>
        <rect x="181" y="20" width="3" height="55" rx="1"/>
        <rect x="190" y="20" width="3" height="55" rx="1"/>
        <rect x="199" y="20" width="3" height="55" rx="1"/>
        <rect x="208" y="20" width="3" height="55" rx="1"/>
        <rect x="217" y="20" width="3" height="55" rx="1"/>
        <rect x="226" y="20" width="3" height="55" rx="1"/>
        <rect x="235" y="20" width="3" height="55" rx="1"/>
        <rect x="244" y="20" width="3" height="55" rx="1"/>
      </g>
    </g>
    <!-- engraving -->
    <text x="-60" y="5" text-anchor="middle" font-family="Georgia, serif" font-size="11" fill="#c9a961" letter-spacing="4">SPADE</text>
  </g>
</svg>
