<svg xmlns="http://www.w3.org/2000/svg" viewBox="0 0 800 600" width="800" height="600">
  <defs>
    <radialGradient id="bg" cx="50%" cy="45%" r="70%"><stop offset="0%" stop-color="#1c1814"/><stop offset="60%" stop-color="#0f0c09"/><stop offset="100%" stop-color="#050403"/></radialGradient>
    <linearGradient id="gold" x1="0" y1="0" x2="1" y2="1"><stop offset="0%" stop-color="#e3c88a"/><stop offset="55%" stop-color="#c9a961"/><stop offset="100%" stop-color="#8a6f33"/></linearGradient>
    <linearGradient id="card" x1="0" y1="0" x2="0" y2="1"><stop offset="0%" stop-color="#1a160f"/><stop offset="100%" stop-color="#08060b"/></linearGradient>
  </defs>
  <rect width="800" height="600" fill="url(#bg)"/>
  <ellipse cx="400" cy="490" rx="260" ry="12" fill="#000" opacity="0.55"/>
  <rect x="150" y="170" width="500" height="300" rx="18" fill="url(#card)" stroke="url(#gold)" stroke-width="2"/>
  <!-- decorative corner flourishes -->
  <path d="M170 220 L210 220 M170 220 L170 260" stroke="#c9a961" stroke-width="1.5" fill="none"/>
  <path d="M630 220 L590 220 M630 220 L630 260" stroke="#c9a961" stroke-width="1.5" fill="none"/>
  <path d="M170 420 L210 420 M170 420 L170 380" stroke="#c9a961" stroke-width="1.5" fill="none"/>
  <path d="M630 420 L590 420 M630 420 L630 380" stroke="#c9a961" stroke-width="1.5" fill="none"/>
  <text x="400" y="280" text-anchor="middle" font-family="Georgia, serif" font-size="24" fill="#c9a961" letter-spacing="10">SPADE</text>
  <text x="400" y="305" text-anchor="middle" font-family="Georgia, serif" font-size="12" fill="#8a7d63" letter-spacing="6">GIFT VOUCHER</text>
  <text x="400" y="400" text-anchor="middle" font-family="Georgia, serif" font-size="96" fill="url(#gold)" font-weight="300">€50</text>
</svg>
